<svg xmlns="http://www.w3.org/2000/svg" id="Layer_1" data-name="Layer 1" viewBox="0 0 473.06 79.62"><defs fill="#101010"><style>.cls-1,.cls-8{fill:#0b0b0b;}.cls-1,.cls-2,.cls-3,.cls-4,.cls-5{fill-rule:evenodd;}.cls-2,.cls-3,.cls-4,.cls-5,.cls-6,.cls-7{fill:none;stroke:#0b0b0b;stroke-miterlimit:10;}.cls-2{stroke-width:0.75px;}.cls-3{stroke-width:0.5px;}.cls-4{stroke-width:0.25px;}.cls-5,.cls-6{stroke-width:0.15px;}.cls-7{stroke-width:0.1px;}</style></defs><title>NEC-LOGO 2-08-08</title><path class="cls-1" d="M13.54,72.51l3.71-5L16.61,67l-2,2.79L14,69.37l.12-.11.07-.16.3-.38.27-.39L15,67.9l.15-.42.08-.47v-.46l-.08-.19,0-.24L15,65.93l-.12-.19-.15-.16-.19-.19-.34-.23L14,65l-.19-.08-.23,0h-.23l-.19,0-.19.08-.19.12-.15.15-.38.54-.11.2L12,66.2v.39l.07.15.08.2.15.11.11.16.19.11.19.08.19,0h.34l.19-.08.19-.11.11-.16.34-.43.12-.23.07-.38.08.19,0,.19v.27l0,.31-.08.31-.11.35-.15.35-.23.35-.15.19-.19.23-.11.12-3.34-2.55-.15-.12-.15-.08-.11,0H9.41l-.11,0-.08,0-.07.08-.08.11L9,66.55l-.08.15v.35l0,.39.11.35.19.35.27.3.26.31.3.28.38.27.38.27.38.15.38.16L12,70l.41,0,.38,0,.38-.07.34-.12.68.5L12.93,72Zm-.3-5.73-.08,0-.11,0-.12,0-.07-.08-.12-.08,0-.11,0-.08,0-.11.56-.74.12-.12.11,0,.12,0,.11,0,.07.12.08.11v.12L13.8,66Zm-.38,2.44-.23.08-.26,0H12.1l-.26,0-.31,0-.26-.08L11,69l-.23-.16-.41-.27-.27-.23-.22-.27-.16-.24-.11-.23-.08-.23V67l.12-.15,0,0Zm8,4.76,1.82-3.79.15-.39.12-.35v-.7l-.12-.31-.15-.3L22.59,68l-.12-.12-.15-.07-.15-.12-.23-.12-.34-.11-.3-.08-.27,0-.26,0-.27.11-.22.16-.19.23-.15.27,0,.16-.08.31V69l-.19,0-.18,0-.12.08-.07.08L19.18,69l-.11-.27L19,68.6l-.11-.16-.15-.11-.16-.12-.22-.07-.23,0-.23,0-.22,0-.19.08-.19.12-.15.15-.12.16-1.28,2.71.68.34L17.7,69l.12-.12.15-.12h.11l.08,0h.11l.08,0,.11.12.08.15,0,.12v.12l0,.11,0,.12-1.25,2.63.64.31,1.18-2.4.07-.15.12-.12.11-.12.11-.07.12,0h.26l.12,0,.07.07.08.08.07.16,0,.15,0,.27-.07.27-.76,1.63-.15.27-.15.19-.19.2-.19.11-.19.08h-.38L18,73l-1.63-.81-.26-.08L15.85,72l-.23,0-.19,0-.19.08-.11.12-.15.11-.08.16-.34.7.68.34.31-.69.11-.12.11,0h.15l.19,0,1.48.77.38.16.34.08.34,0,.3-.08.15,0,.12-.08.15-.08.11-.11.27-.31.19-.35L20.81,71l.07-.27.08-.23V70l-.08-.23-.07-.19-.15-.19-.19-.16,0-.08v-.27l.07-.11.08-.16.08-.15.11-.16.15-.11.15-.08.15,0h.31l.19.08.22.11.16.12.11.11.07.16,0,.19V69l0,.23-.11.27-.11.31L20.2,73.63Zm6,.81.23-.62,0-.19v-.19l0-.16L27,73.44l-.12-.16-.11-.15L26.6,73l-.19-.08-.26-.11-.16,0h-.18l-.16,0-.11,0-.15.11-.12.16-.11.15-.07.23-.19.59,0,.38,0,.43-.19-.23-.19-.27-.15-.31-.11-.39-.08-.39v-.39l0-.42.07-.39.19-.58.16-.39.18-.34.23-.28.27-.23.26-.19.31-.12.26-.07.3,0-.15.23-.11.23-.15.47,0,.19,0,.15v.2l0,.15.07.16.12.11.15.12.15.08.27.07.26.08h.23l.19,0,.19-.11.15-.12.11-.19.11-.2.08-.19.11-.39,0-.19,0-.16,0-.19-.07-.19L28,70l-.11-.15-.19-.12-.19-.08-.38-.11-.3-.08-.27-.08H26l-.27,0-.23.08-.26.08-.23.11-.19.12-.22.15-.19.2-.16.19-.15.19-.15.24L23.8,71l-.08.27-.22.62,0,.27-.08.23v.82l0,.27,0,.27.07.23.12.23.11.23.11.24.16.19.15.15.19.16.19.12.22.07.34.12.27.08.26,0h.23l.27-.07.22-.08.23-.15.15-.2Zm.31-3.48-.08.08-.11.07-.12.08h-.07l-.11-.08,0-.11-.08-.12v-.11l.23-.74.07-.12.12-.07h.23l.07,0,.08.11,0,.12v.11ZM26,74.87,26,75l-.12.07-.11,0h-.11L25.54,75,25.46,75l0-.12v-.15l.34-1.05.07-.12.08-.07H26l.12,0,.11,0,.07.08,0,.12,0,.11Zm7.27,2.36L34,73.17l-.72-.12-.6,3.52-1.78-.35.26-.27.27-.31.19-.38.07-.39.08-.46,0-.43-.08-.39-.11-.31L31.33,73l-.23-.23-.26-.15-.34-.08-.57-.12-.34,0-.34.08-.3.12-.31.19-.26.23-.19.27-.19.31-.08.35-.22,1.28v.23l0,.19.07.2.08.15.15.12.15.11.19.08.19,0,.23,0,.18,0,.19,0,.19-.08.15-.07.16-.16.07-.19.08-.2.15-.89v-.19l0-.15-.07-.16-.08-.15-.15-.16-.12-.11-.18-.08-.16,0-.22,0-.23.08.08-.16.11-.15.11-.12.15-.11.16-.08.18-.08h.31l.49.08.15.08.15.07.15.16.12.19.07.23,0,.24v.35l0,.34,0,.2-.08.19-.08.19-.11.2-.15.15-.11.16-.12.11-.15.08-.08.62Zm-4.24-1.66,0,.15-.11.08-.11,0h-.12l-.11,0-.12-.08,0-.12v-.15l.11-.77.08-.12.07-.12.12,0h.11l.15.07.08.08,0,.12,0,.11Zm17.53,2,0-.5-.08-.27-.07-.28-.15-.19-.15-.19L45.94,76l-.22-.08-.19,0H45.3L45,76l-.27.12-.34-3.44-.72.07L44,76.19l-.72,0,0-.15,0-.16,0-.5L43.14,75,43,74.48l-.19-.42-.27-.39-.15-.16-.15-.15-.19-.12-.19-.11-.19-.08-.22,0-.23,0H41l-.41.08-.23,0-.23.08-.18.11-.16.16-.15.15-.07.2,0,.23v.23l.07.66,0,.23.08.16.11.15.15.12.15.11.19,0,.19,0,.19,0h.19l.19-.08.19-.11.15-.12.11-.11.08-.2.08-.19v-.23l-.08-.55,0-.23-.15-.31.15.08.15.12.16.19.18.23.16.27.15.35.07.35.08.42,0,.28v.46l-4.13.43-.19,0-.15,0-.15.08L37.8,77l-.11.08,0,.11,0,.08v.23l0,.19.08.16.11.15.12.12.3.23.34.16.38.11.38.08.41,0,.42,0,.45,0,.46-.08.41-.11.38-.19.34-.24.31-.23.26-.31.19-.31.15-.35.87-.07.15,1.35.72-.08-.11-1.31.08-.08.11-.12.15-.07.15,0,.15,0,.16.15.11.19.07.24,0,.46v.19l-.07.24-.08.23-.15.23-.19.19-.23.16-.26.12-.3.07L44,79h-.22l-.27-.08-.07,0-.08-.08-.08,0v-.23l0-.2,0-.07.08-.08.07,0,.15-.08-.53-.31-.15.08-.11.12-.12.11-.11.12-.08.12,0,.11,0,.16v.27l.07.19.12.16.15.15.19.12.26.07.27,0,.26,0h.27l.64-.08.34-.07.34-.16.31-.19.3-.27.26-.31.19-.31,0-.16,0-.15,0-.2ZM41,74.87V75l-.07.07-.11,0-.12,0h-.11l-.12,0L40.38,75l0-.07L40.23,74l0-.16,0-.11.12-.08.11,0,.11,0,.12,0,.07.08.08.15Zm1.37,2-.15.23-.16.2-.18.19-.23.19-.23.16-.26.11-.27.08-.26,0-.5.08h-.34l-.34,0-.26,0L38.9,78l-.19-.11-.15-.16-.11-.15,0-.16v-.07Zm6.09-7.16,0-.15-.07-.12-.08-.12-.11-.07-.11,0-.12,0h-.26l-.15.08-.12.07-.07.12-.08.12,0,.11V70l0,.16,0,.11.07.12.08.12.11.07.12,0,.15,0h.11l.15,0,.15,0,.12-.07.07-.12,0-.12,0-.11v-.27Zm3.11,3.75L51.4,73l-.08-.19-.08-.16-.15-.11-.15-.08-.19-.08H50.3l-.31.08-.49.19-.3-.93,1.1-.34-.19-.55-3.37,1.09.45,1.47-.26.08-.08.07-.11,0,0,.12-.07.08,0,.11v.23l0,.12.22.74,0,.11.08.16.07.11.12.08.18.15.27.08.26,0h.27l.26,0,.27,0,.38-.15.3-.16.27-.19.19-.19.11-.2,0-.27v-.27l-.08-.31-.19-.69.42-.12.19,0h.19l.11.12.08.19.11.31,0,.23,0,.23,0,.12,0,.08-.07.08-.12.07h-.11l-.11.62.22,0,.16-.07.22-.08.23-.16.19-.15.11-.19.12-.24,0-.19,0-.23Zm-2.73-.65-.87.31-.26-.93.87-.27Zm.42,1.31,0,.16v.15l-.07.16-.08.11-.11.12-.15.12-.15.07-.15,0-.12,0-.15,0h-.15l-.11,0-.12,0L47.84,75,47.72,75l0-.12-.23-.77V74l0,0h0l1.48-.5ZM56.69,71l-.22-.5-.08-.16-.15-.11-.11-.12L55.94,70l-.19,0-.19,0-.27,0-.26.12-.49.23-.42-.85,1-.51-.22-.54L51.7,70.11l.68,1.39-.27.12L52,71.7l-.08.07-.07.08,0,.12v.34l0,.08.34.7.15.27.23.19.22.12.23,0h.3l.27,0,.26-.08.27-.11.34-.16.26-.23L55,72.9l.15-.24.08-.23,0-.23,0-.27-.12-.31L54.8,71l.38-.19.23-.08h.15l.15.12.11.15.16.31,0,.19,0,.27,0,.12,0,.08L55.9,72l-.08,0-.07,0h-.08v.62l.19-.08.15-.07.23-.12.23-.19.15-.2.11-.19,0-.23,0-.23,0-.2Zm-2.76-.27-.83.42-.42-.85.84-.42ZM54.5,72l0,.11v.27l-.08.16-.07.12-.12.15-.15.12L54,73l-.11.08H53.7l-.15,0h-.11l-.15,0-.08,0-.11-.08L53,72.82l-.3-.7,0,0v0l0,0,0,0,1.4-.7Zm3.07-7-.12-.08-.07-.11-.12-.08-.11,0-.11,0h-.16l-.11,0-.11.08-.15.08-.08.11,0,.16,0,.11v.28l.08.15,0,.12.11.07.08.12.11.08.11,0h.27l.15,0,.15-.08.12-.08.07-.11,0-.12v-.39l-.08-.15Zm4,3.18-1-1.63-.23-.27-.23-.19-.23-.16-.22-.08h-.23l-.23,0-.26.08-.23.15-.23.16-.15.19-.11.16-.08.19,0,.16v.15l0,.16.08.15,1.51,2.28-1.21.85-2-3L55.9,68l2.23,3.41,3.3-2.29.15-.11.11-.12,0-.12,0-.11v-.16l0-.11-.08-.16Zm-.72.23.11.19,0,.12,0,.11-.07.12-.61.39-1.4-2.13,0-.12,0-.15,0-.12,0-.08,0-.07.07-.08.12,0,.07,0h.23l.11.08.12.08.15.15.15.16Z" transform="translate(-3.63 0.03)" fill="#101010"/><polygon class="cls-2" points="33.27 7.91 33.61 7.91 33.99 7.91 34.26 7.13 34.52 6.32 34.79 5.55 35.05 4.73 35.39 3.65 35.77 2.6 36.11 1.52 36.49 0.44 37.02 0.55 37.55 0.63 38.04 0.71 38.57 0.82 39.1 0.9 39.63 0.98 40.16 1.06 40.69 1.17 40.69 2.29 40.69 3.42 40.69 4.54 40.69 5.7 40.69 6.51 40.69 7.37 40.69 8.22 40.69 9.03 41.3 9.22 41.87 9.42 42.4 9.65 42.96 9.84 43.49 9.22 44.02 8.56 44.51 7.91 45.04 7.25 45.73 6.4 46.45 5.51 47.16 4.62 47.85 3.77 48.3 4.04 48.79 4.31 49.25 4.58 49.7 4.85 50.16 5.12 50.61 5.39 51.1 5.66 51.56 5.93 51.18 6.98 50.8 8.06 50.38 9.11 50 10.15 49.74 10.96 49.44 11.78 49.13 12.55 48.87 13.36 49.28 13.71 49.7 14.06 50.12 14.41 50.53 14.79 51.25 14.37 51.93 13.94 52.62 13.52 53.34 13.09 54.28 12.55 55.23 11.97 56.17 11.39 57.12 10.81 57.46 11.23 57.8 11.62 58.14 12.05 58.48 12.47 58.82 12.86 59.16 13.29 59.51 13.71 59.85 14.1 59.13 14.99 58.45 15.84 57.73 16.69 57.01 17.58 56.48 18.2 55.95 18.82 55.42 19.48 54.89 20.1 55.19 20.6 55.45 21.07 55.72 21.57 55.98 22.07 56.78 21.92 57.58 21.76 58.33 21.61 59.13 21.45 60.23 21.26 61.28 21.03 62.38 20.83 63.44 20.64 63.63 21.14 63.82 21.64 64.01 22.15 64.2 22.65 64.35 23.16 64.54 23.66 64.73 24.16 64.92 24.66 63.97 25.24 63.03 25.79 62.04 26.37 61.09 26.91 60.38 27.33 59.7 27.72 58.98 28.15 58.29 28.57 58.41 29.11 58.48 29.66 58.6 30.24 58.67 30.78 59.43 30.89 60.23 31.05 61.02 31.16 61.81 31.32 62.87 31.48 63.97 31.67 65.03 31.86 66.13 32.02 66.13 32.56 66.13 33.1 66.13 33.64 66.13 34.18 66.13 34.73 66.13 35.27 66.17 35.81 66.17 36.35 65.07 36.55 63.97 36.74 62.91 36.93 61.81 37.09 61.02 37.24 60.23 37.4 59.43 37.51 58.63 37.67 58.52 38.21 58.45 38.79 58.33 39.33 58.22 39.87 58.94 40.26 59.62 40.65 60.34 41.07 61.02 41.46 62 42 62.95 42.54 63.9 43.09 64.84 43.67 64.69 44.17 64.5 44.67 64.31 45.17 64.16 45.68 63.97 46.18 63.78 46.69 63.63 47.19 63.44 47.69 62.34 47.5 61.28 47.3 60.19 47.11 59.13 46.92 58.33 46.76 57.5 46.61 56.7 46.45 55.87 46.3 55.61 46.8 55.34 47.27 55.08 47.73 54.81 48.19 55.34 48.81 55.87 49.47 56.4 50.09 56.93 50.71 57.65 51.56 58.37 52.41 59.09 53.26 59.81 54.12 59.47 54.54 59.13 54.93 58.79 55.35 58.45 55.78 58.14 56.17 57.8 56.59 57.46 57.02 57.12 57.41 56.17 56.86 55.23 56.28 54.28 55.74 53.34 55.16 52.62 54.73 51.9 54.31 51.18 53.88 50.46 53.46 50.04 53.81 49.66 54.15 49.25 54.5 48.83 54.81 49.13 55.62 49.44 56.4 49.74 57.21 50.04 57.98 50.42 59.03 50.8 60.08 51.18 61.12 51.59 62.16 51.14 62.44 50.69 62.71 50.23 62.98 49.78 63.25 49.32 63.52 48.87 63.79 48.41 64.06 47.96 64.33 47.24 63.48 46.56 62.63 45.84 61.78 45.16 60.93 44.63 60.27 44.06 59.61 43.53 58.95 43 58.3 42.51 58.49 42.05 58.64 41.56 58.84 41.07 58.99 41.07 59.88 41.07 60.73 41.11 61.59 41.11 62.44 41.11 63.56 41.15 64.64 41.15 65.76 41.18 66.89 40.65 67 40.16 67.08 39.63 67.2 39.1 67.27 38.61 67.39 38.08 67.47 37.55 67.58 37.06 67.66 36.68 66.62 36.3 65.57 35.92 64.53 35.58 63.48 35.28 62.67 34.98 61.85 34.71 61.04 34.41 60.23 34.14 60.23 33.84 60.23 33.54 60.27 33.27 60.27 32.82 60.27 32.36 60.23 32.1 61.04 31.8 61.85 31.53 62.67 31.27 63.48 30.89 64.53 30.55 65.61 30.2 66.65 29.83 67.7 29.3 67.62 28.8 67.51 28.27 67.43 27.78 67.35 27.25 67.27 26.72 67.16 26.23 67.08 25.7 67 25.7 65.88 25.7 64.76 25.7 63.64 25.7 62.51 25.7 61.66 25.7 60.81 25.7 59.96 25.7 59.07 25.21 58.91 24.72 58.76 24.26 58.57 23.77 58.37 23.24 59.07 22.71 59.73 22.18 60.38 21.65 61.08 20.97 61.93 20.29 62.78 19.57 63.67 18.89 64.53 18.43 64.25 17.98 63.98 17.52 63.75 17.07 63.48 16.61 63.21 16.16 62.94 15.71 62.67 15.25 62.4 15.63 61.35 16.01 60.31 16.39 59.26 16.73 58.22 17.03 57.41 17.33 56.59 17.6 55.82 17.9 55.01 17.49 54.66 17.07 54.35 16.69 54 16.31 53.65 15.59 54.12 14.87 54.54 14.12 55.01 13.4 55.43 12.49 56.01 11.54 56.59 10.6 57.17 9.69 57.72 9.35 57.33 9.01 56.9 8.67 56.52 8.32 56.09 7.98 55.7 7.64 55.28 7.3 54.89 6.96 54.46 7.64 53.61 8.36 52.76 9.04 51.91 9.76 51.06 10.29 50.4 10.82 49.74 11.35 49.08 11.88 48.47 11.58 48 11.31 47.54 11.05 47.07 10.79 46.61 9.99 46.8 9.16 46.95 8.36 47.11 7.53 47.27 6.47 47.5 5.41 47.69 4.31 47.92 3.25 48.12 3.06 47.61 2.87 47.11 2.68 46.61 2.53 46.1 2.34 45.6 2.15 45.1 1.97 44.59 1.78 44.09 2.72 43.55 3.67 42.97 4.62 42.43 5.56 41.89 6.24 41.46 6.96 41.03 7.68 40.61 8.36 40.22 8.25 39.68 8.14 39.14 8.02 38.6 7.95 38.05 7.15 37.94 6.36 37.78 5.52 37.67 4.73 37.55 3.63 37.36 2.57 37.2 1.47 37.01 0.41 36.85 0.41 36.31 0.41 35.77 0.38 35.23 0.38 34.69 0.38 34.15 0.38 33.6 0.38 33.1 0.38 32.56 1.44 32.37 2.53 32.17 3.59 31.98 4.65 31.79 5.45 31.63 6.24 31.48 7.04 31.32 7.79 31.2 7.87 30.62 7.95 30.08 8.06 29.54 8.14 29 7.45 28.57 6.74 28.19 6.02 27.8 5.33 27.41 4.35 26.87 3.4 26.33 2.46 25.79 1.47 25.24 1.66 24.74 1.85 24.2 2 23.7 2.19 23.19 2.34 22.69 2.53 22.19 2.72 21.68 2.87 21.18 3.97 21.37 5.03 21.57 6.13 21.76 7.19 21.95 7.98 22.07 8.74 22.23 9.54 22.34 10.29 22.5 10.56 21.99 10.82 21.49 11.09 20.99 11.39 20.52 10.86 19.9 10.33 19.28 9.8 18.67 9.27 18.05 8.55 17.2 7.83 16.34 7.11 15.49 6.39 14.64 6.74 14.25 7.04 13.83 7.38 13.4 7.72 12.98 8.06 12.59 8.4 12.16 8.74 11.74 9.04 11.31 10.03 11.89 10.97 12.44 11.92 13.02 12.87 13.56 13.55 13.94 14.23 14.37 14.91 14.76 15.59 15.14 16.01 14.76 16.43 14.37 16.84 14.02 17.26 13.67 16.99 12.9 16.69 12.13 16.39 11.35 16.12 10.62 15.71 9.57 15.33 8.49 14.91 7.44 14.53 6.4 14.99 6.13 15.44 5.86 15.9 5.58 16.35 5.31 16.8 5.04 17.26 4.73 17.71 4.46 18.17 4.19 18.89 5.04 19.61 5.93 20.29 6.78 21.01 7.64 21.5 8.26 22.03 8.87 22.52 9.49 23.05 10.07 23.54 9.88 24.07 9.65 24.6 9.45 25.13 9.26 25.09 8.45 25.09 7.6 25.09 6.78 25.06 5.97 25.06 4.85 25.02 3.73 24.98 2.6 24.98 1.44 25.51 1.37 26 1.25 26.53 1.17 27.06 1.06 27.59 0.98 28.09 0.86 28.61 0.75 29.14 0.67 29.52 1.72 29.9 2.8 30.28 3.84 30.66 4.89 30.92 5.66 31.23 6.44 31.49 7.17 31.76 7.95 32.14 7.95 32.51 7.91 32.89 7.91 33.27 7.91" fill="#101010"/><polyline class="cls-3" points="33.27 15.65 34.18 15.69 35.09 15.76 36 15.88 36.87 16.03 37.74 16.23 38.61 16.5 39.44 16.77 40.27 17.12 41.07 17.47 41.83 17.89 42.58 18.32 43.3 18.82 44.02 19.32 44.7 19.86 45.35 20.45 45.99 21.07 46.6 21.72 47.16 22.38 47.69 23.08 48.19 23.77 48.64 24.55 49.09 25.32 49.47 26.1 49.85 26.91 50.19 27.76 50.46 28.61 50.72 29.5 50.91 30.39 51.06 31.28 51.18 32.21 51.25 33.14 51.29 34.07 51.25 35.04 51.18 35.96 51.06 36.89 50.91 37.78 50.72 38.67 50.46 39.56 50.19 40.41 49.85 41.23 49.47 42.04 49.09 42.85 48.64 43.63 48.19 44.36 47.69 45.1 47.16 45.8 46.6 46.45 45.99 47.07 45.35 47.69 44.7 48.27 44.02 48.81 43.3 49.35 42.58 49.82 41.83 50.28 41.07 50.67 40.27 51.06 39.44 51.37 38.61 51.68 37.74 51.91 36.87 52.1 36 52.3 35.09 52.41 34.18 52.49 33.27 52.49 32.33 52.49 31.42 52.41 30.51 52.3 29.64 52.1 28.77 51.91 27.9 51.68 27.06 51.37 26.27 51.06 25.47 50.67 24.68 50.28 23.92 49.82 23.2 49.35 22.48 48.81 21.8 48.27 21.16 47.69 20.51 47.07 19.95 46.45 19.38 45.8 18.81 45.1 18.32 44.36 17.86 43.63 17.41 42.85 17.03 42.04 16.65 41.23 16.35 40.41 16.05 39.56 15.82 38.67 15.59 37.78 15.44 36.89 15.33 35.96 15.25 35.04 15.25 34.07 15.25 33.14 15.33 32.21 15.44 31.28 15.59 30.39 15.82 29.5 16.05 28.61 16.35 27.76 16.65 26.91 17.03 26.1 17.41 25.32 17.86 24.55 18.32 23.77 18.81 23.08 19.38 22.38 19.95 21.72 20.51 21.07 21.16 20.45 21.8 19.86 22.48 19.32 23.2 18.82 23.92 18.32 24.68 17.89 25.47 17.47 26.27 17.12 27.06 16.77 27.9 16.5 28.77 16.23 29.64 16.03 30.51 15.88 31.42 15.76 32.33 15.69 33.27 15.65" fill="#101010"/><path class="cls-1" d="M17.17,40.81h0L15.43,43l.27.74,3.18-1.24-.23-.66-2.27.89h0l1.78-2.21-.27-.69-3.18,1.24.23.65Zm-.26-2.16-.3-1.24.64-.39-.19-.77-3,2,.19.81,3.6.43-.19-.74Zm-2.05-.16v0l1.22-.73.19.89Zm-.6-3.41,0-1.08-.6,0,.18,2.83.61,0-.08-1,2.81-.19-.08-.74Zm-.57-2.39v.73l3.37.12,0-.74ZM15.32,32l.3,0h.49l.19,0,.19-.08.15-.07.16-.08.11-.12.23-.27.11-.23.11-.23,0-.2,0-.23v-.23l0-.31-.11-.31-.08-.12-.07-.15L17,29.16l-.15-.11-.19-.12-.19-.11-.26-.08L16,28.66l-.3,0h-.45l-.23,0-.19.08-.15.08-.15.11-.12.08-.19.27-.15.23-.11.23,0,.2,0,.23v.23l0,.31L14,31l.08.12.08.15.15.16.15.11.15.12.23.12.22.07Zm.15-.74-.3-.07L14.9,31l-.19-.11-.11-.2-.08-.15,0-.16,0-.19,0-.12,0-.15.08-.16.08-.15.15-.12.19-.08.22-.07h.27l.3,0,.34.07.23.12.19.15.11.16.12.15,0,.16v.35l-.07.11,0,.16-.11.15-.16.12-.15.11-.22,0-.27,0Zm1.93-5v0l-2.65.51-.26.73,3.21,1.12.23-.65-2.31-.78v0l2.77-.5.22-.7-3.22-1.16-.22.66Zm1.17-1.85.65-1.13.72.2.38-.7L16.76,22l-.42.7,2.35,2.82.38-.65Zm-1.36-1.55h0l1.4.31-.45.77Zm1-3.1-.45.58,2.69,2.13,1.47-1.93-.49-.39-1,1.35Zm4.62-4.8L21,16.55l2.19,2.67,2-1.71-.38-.46-1.47,1.24-.57-.7L24,16.51l-.38-.5-1.29,1.12-.45-.58,1.4-1.2Zm3.83.35h0l-2.39-1.31-.64.42,1.81,2.94.53-.35-1.28-2.12h0l2.47,1.35.6-.39L26,12.83l-.56.35Zm2.72-1.51.72-.27,0,.23,0,.24-.08.15-.07.12-.19.19-.15.08-.19.08H29.1l-.19,0-.19-.12-.15-.15L28.42,14l-.15-.27-.08-.31,0-.27v-.23l.08-.19.07-.2.12-.15.15-.08.19-.12.15,0h.19l.11,0,.15,0,.19.12.12.11.64-.27L30.23,12l-.15-.16-.19-.15-.19-.12-.26-.07h-.57l-.38.11-.19.08-.15.12-.15.11-.15.12-.19.27-.15.31,0,.31,0,.35.08.34.07.31.19.39.23.31.27.27.26.16.27.11h.6l.3-.07.19-.12.15-.12.16-.07.07-.12.15-.27.08-.19.23.38.45-.19-.68-1.74-1.33.5Zm2.16-3-.68.16.75,3.4.72-.19Zm3.33,1.86h0l-1.63-2.24-.71.11.41,3.45.65-.08-.31-2.48h0L35,13.68l.68-.11-.42-3.45-.64.08Zm3.94-2.44-2.5-.08-.08,3.49,2.58.07,0-.61L37,13V12.1h1.67v-.62H37l0-.74,1.78,0Zm3.56.58-2.5-.42-.57,3.4,2.54.47.11-.58-1.86-.35.16-.89,1.62.31.12-.62-1.63-.31.11-.7,1.78.31Zm-.08,3.64.68.19.42-1.27.68.23.15.08.15,0,.08.08,0,.12V14l-.08.31-.11.39,0,.31.76.23,0-.08L45,15.12V15l0-.19.07-.31.08-.2,0-.15v-.27l-.11-.2L45,13.49h.11l.11,0,.12,0,.11-.07.15-.2.12-.27,0-.12,0-.15,0-.19,0-.16-.08-.19-.15-.2-.19-.15-.3-.12-1.63-.54Zm1.25-1.63.3-.89.83.28.12,0,.11.08.08.08,0,.08,0,.15,0,.16,0,.11-.08.08,0,.08-.07,0-.19,0L44.35,13Zm3.94,0-.65-.31-1.47,3.1.64.35Zm1.36,3.64v0L49,13.57l-.64-.39-1.82,2.94.57.39,1.29-2.13h0l-.12,2.86.61.39,1.82-2.94-.57-.39Zm2.5,1.82.6.54-.22.16-.19,0-.19,0-.15,0L51,18.87l-.15-.12-.12-.11-.11-.16-.08-.19,0-.19,0-.2,0-.23.15-.23.19-.23.23-.24.23-.15.19-.08.22,0H52l.19,0,.15.08.15.15.12.12.07.15,0,.16,0,.11,0,.24-.07.15.53.51.11-.2.08-.19,0-.2v-.27l0-.23-.08-.27-.19-.27-.23-.31-.15-.12-.19-.11-.15-.08-.15-.08L51.85,16h-.3l-.34.07-.31.16-.26.19-.27.23-.26.35-.15.35-.12.31,0,.35,0,.31.12.27.15.27.19.23.19.16.15.07.15.08.15,0,.27,0,.22,0-.22.39.34.31,1.25-1.36-1-1Zm4.84,4.57.15-.12.12-.19.11-.19.08-.24,0-.27,0-.27-.08-.31-.19-.35-.19-.23L56,20.42l-.27-.16-.3-.11H55.1l-.34,0-.34.11-.37.23-.35.24-.26.27-.15.31-.12.31,0,.27v.31l.11.31.15.31.19.23.19.19.23.16.22.07.23,0h.27l.26,0,.27-.07-.38-.62-.15,0-.15,0h-.12l-.15,0-.11,0-.12-.08L54,22.62l-.08-.11-.11-.2,0-.19V22l.08-.2.11-.19.11-.16.15-.15.19-.12.31-.15.26-.12.19,0,.23,0,.15,0,.15.08.11.11.08.08.08.19,0,.16,0,.15,0,.12-.07.23-.12.16Zm-.26.81-.27.16-.19.15-.19.16-.15.15-.11.15-.08.16-.07.15,0,.2v.31l0,.27,0,.27.07.19.11.16.16.23.19.19.22.2.15.07.19,0,.15,0,.19,0h.23l.23,0,.26-.08.23-.11.27-.16.22-.11.15-.16.16-.15.11-.2.07-.15.08-.16,0-.15,0-.35,0-.27-.08-.27-.07-.16-.08-.19L58,24l-.19-.23-.26-.2-.16-.08-.15,0-.19,0-.19,0-.22,0-.23,0-.23.07Zm.3.66.3-.12.27,0H57l.18,0,.19.12.12.11.11.12.08.12,0,.15,0,.16v.19l0,.16-.11.19-.11.19-.23.2L57,26l-.35.12-.26,0H56.2l-.19,0L55.86,26l-.15-.12-.08-.15-.07-.12-.08-.15v-.35l0-.16.08-.19.15-.19.19-.16Zm3.07,3.48L59.16,27l-3.34.85.61,2.4.57-.16-.38-1.7Zm.6,3.14-.11-.74-3.37.5.34,2.44.61-.11-.23-1.71Zm.15,5.22,0-2.55-3.41,0,0,2.63h.6l0-1.93.87,0,0,1.71h.61l0-1.71h.72l0,1.86Zm-2.57,2.44-.19.77-.19-.11L57,39l-.11-.11-.08-.16,0-.27,0-.19,0-.16.07-.19.12-.12.15-.15.19-.08.19,0,.26,0,.34.08.27.08.26.11.19.16.12.15.11.2,0,.15v.2l0,.19L59,39l-.07.12-.12.11-.11.08-.19.12H58.4l-.19.69.19,0,.23,0,.18-.07L59,40l.19-.15.19-.24.15-.27.12-.34,0-.24v-.38l0-.16-.08-.35-.19-.27-.23-.23-.26-.19-.3-.16-.35-.11-.41,0h-.38l-.3.07-.31.12-.22.19-.23.24-.11.27L56.2,38l0,.19v.23l0,.16,0,.15.11.23.12.2h-.42l-.11.46,1.78.43.34-1.43Zm.53,5.3.91-2.36-3.18-1.28-1,2.48.57.23.68-1.82.83.35L56.28,43l.57.19.56-1.58.69.27-.65,1.74Z" transform="translate(-3.63 0.03)" fill="#101010"/><path class="cls-1" d="M25.2,53.31l.49-.15.15,1.93.84.47L26.37,53l2-.54-.83-.5-1.86.58.72-1.24-.64-.39L24,54l.64.39Zm2.65,1.9-.68-.31-.31.66.69.31Zm.26.93.69.23.41-1.32.72.24.19.07.11.08.08.08,0,.08v.23l-.08.31-.11.42,0,.27.76.28,0-.08-.08-.12V56.8l0-.2.11-.31,0-.23,0-.15,0-.16,0-.11-.08-.2-.15-.15H31l.11,0,.12-.08.11-.08.19-.19.11-.23,0-.16V54.2l0-.19-.07-.19-.15-.2-.19-.15-.3-.12-1.67-.62Zm1.29-1.67.3-.89.87.27.16.08.07.08.08.08,0,.07,0,.16,0,.15,0,.12-.08.12-.07,0-.08,0-.19,0-.23-.07Zm2.8,2.13-.72-.19-.15.73.68.16Zm3.79.16h0l-1.14-2.63L34,54.05l-.3,3.6.68,0,.23-2.56h0l1.21,2.67.72.08.3-3.56-.68-.08Zm2.08.31L39.36,57l.3.7.79,0L38.9,54.13l-.83.07-1,3.68.8,0ZM38.56,55h0l.57,1.39-.91.08Zm3.79.85.75-.23v.27l0,.19-.12.19-.07.12-.23.16-.15.07-.19,0h-.19l-.19,0-.19-.07-.15-.12-.15-.19L41.29,56l-.08-.34-.07-.31v-.28l0-.23.08-.19.11-.19.15-.12.19-.12.16,0,.18,0h.19l.12,0,.15.08.19.16.07.11.72-.15-.11-.2L43.26,54l-.16-.19-.18-.16-.27-.08-.26-.07H42l-.34,0-.22.07-.19.08-.15.08-.16.11-.11.12-.11.15-.12.12-.07.16-.12.34,0,.31v.39l.07.35.12.42.19.35.22.27.27.2.26.15.31,0,.3,0,.34,0,.19-.08.19-.07L43,57l.11-.12.15-.23.12-.19.19.42.45-.11-.45-1.9-1.4.39ZM45,55.6l1.17-.51.49.62.76-.31L45,52.54l-.8.35.15,3.79.72-.31Zm-.16-2.13h0l.91,1.12-.79.35ZM48,55.21l.6-.43-.76-1.16.65-.42.15-.08.15,0,.11,0,.08,0,.19.12.15.27.27.35.19.19.68-.43,0-.07h-.11l-.12-.08-.11-.19L49.92,53l-.11-.15-.12-.15-.11-.12-.08,0-.23,0h-.18l.07-.11,0-.12,0-.12V52l0-.23-.11-.27L49,51.34l-.11-.12-.16-.11L48.56,51l-.19,0h-.23l-.27.08-.26.15-1.48,1Zm-.46-2.09L47,52.31l.8-.51.11-.07.11,0h.12l.07,0,.15.07.12.12,0,.12,0,.07v.2l-.11.19-.19.16Z" transform="translate(-3.63 0.03)" fill="#101010"/><polyline class="cls-4" points="30.02 19.94 30.2 20.1 30.36 20.21 30.55 20.29 30.73 20.33 31.08 20.33 31.42 20.25 31.8 20.1 32.14 20.02 32.44 19.98 32.67 20.06 32.78 20.1 32.85 20.14 32.89 20.25 32.93 20.33 32.97 20.6 32.93 20.95 32.67 21.26 32.4 21.57 32.14 21.88 31.87 22.15 31.8 22.46 31.76 22.73 31.98 22.92 32.14 23.04 32.21 23.12 32.29 23.23 32.36 23.35 32.4 23.54 32.1 23.73 31.91 23.81 31.8 23.81 31.72 23.77 31.61 23.73 31.49 23.62 31.45 24.16 31.42 24.7 31.76 25.05 32.14 25.36 32.4 25.48 32.7 25.55 33.08 25.86 33.46 26.14 33.12 26.52 32.93 26.79 32.85 27.1 32.78 27.64 33.31 27.99 33.84 28.34 34.26 28.73 34.71 29.15 34.98 29.15 35.2 29.15 35.62 29.15 36 29.19 36.38 29.19 36.75 29.23 37.06 29.62 37.4 29.97 37.89 30.08 38.42 30.2 38.87 30.2 39.37 30.2 39.82 30.2 40.31 30.24 40.24 29.66 40.2 29.19 40.16 28.96 40.2 28.77 40.24 28.57 40.31 28.38 40.5 28.38 40.65 28.38 40.77 28.46 40.84 28.57 40.92 29 41.03 29.62 41.34 29.7 41.67 29.7 42.02 29.7 42.24 29.62 42.62 29.66 43 29.66 43.38 29.66 43.76 29.66 43.83 29.54 43.83 29.39 43.83 29.27 43.83 29.11 43.76 29 43.68 28.88 43.61 28.77 43.45 28.65 43.76 28.61 44.06 28.61 44.55 28.19 45.04 27.76 45.01 27.53 44.97 27.3 45.23 27.33 45.54 27.37 45.8 27.06 46.07 26.75 46.48 26.79 46.86 26.87 47.16 26.71 47.43 26.56 47.58 26.56 47.69 26.6 47.77 26.64 47.81 26.75 47.88 26.87 47.88 27.02 47.88 27.22 47.88 27.45 48.19 27.53 48.53 27.61 48.64 27.68 48.68 27.76 48.72 27.88 48.72 27.99 48.64 28.3 48.56 28.69 48.07 28.73 47.62 28.77 47.2 29.23 46.82 29.66 46.86 30.12 46.86 30.55 46.75 30.66 46.6 30.78 46.63 31.05 46.71 31.28 46.6 31.59 46.48 31.9 46.37 32.17 46.26 32.48 45.84 32.48 45.42 32.44 45.46 32.75 45.46 33.06 45.42 33.33 45.35 33.64 45.35 34.18 45.31 34.73 45.04 34.65 44.78 34.57 44.63 34.15 44.51 33.72 44.4 33.29 44.25 32.83 44.1 33.29 43.91 33.6 43.83 33.68 43.76 33.72 43.68 33.72 43.61 33.64 43.49 33.26 43.42 32.91 43.64 32.64 43.87 32.37 44.14 31.94 44.44 31.51 43.8 31.48 43.15 31.4 42.55 31.36 41.9 31.32 41.9 30.93 41.94 30.51 41.64 30.39 41.34 30.35 40.99 30.31 40.73 30.39 40.58 30.51 40.43 30.66 40.5 30.89 40.58 31.13 40.84 31.16 41.11 31.2 40.77 31.48 40.43 31.79 40.35 31.98 40.31 32.21 40.62 32.33 40.88 32.44 40.88 32.79 40.88 33.1 41.03 33.14 41.15 33.22 41.15 33.53 41.18 33.84 41.18 34.15 41.18 34.46 41.34 34.57 41.45 34.69 41.45 35.07 41.41 35.5 40.96 35.42 40.5 35.38 40.05 35.46 39.63 35.54 39.48 36 39.37 36.51 39.29 36.78 39.22 37.05 39.06 37.24 38.87 37.4 38.69 37.51 38.42 37.59 38.12 37.59 37.78 37.59 37.44 38.05 37.06 38.56 36.64 39.02 36.15 39.49 35.85 39.72 35.54 39.95 35.24 40.14 34.98 40.3 34.86 40.61 34.79 40.88 34.75 40.96 34.67 41.03 34.6 41.11 34.48 41.15 34.18 41.23 33.84 41.27 33.69 41.58 33.57 41.89 33.46 41.77 33.38 41.73 33.27 41.77 33.12 41.89 32.93 41.85 32.78 41.92 32.7 42 32.67 42.08 32.59 42.2 32.55 42.31 32.63 42.85 32.67 43.43 32.7 43.98 32.78 44.52 32.67 44.94 32.55 45.33 32.4 45.76 32.29 46.18 32.29 46.57 32.29 46.99 32.25 47.42 32.25 47.81 31.87 47.85 31.45 47.85 31.57 48.08 31.64 48.31 31.53 48.7 31.45 49.05 31.11 49.12 30.77 49.16 30.66 49.43 30.58 49.74 30.32 49.97 30.05 50.17 29.83 50.28 29.64 50.32 29.45 50.28 29.26 50.21 29.11 50.01 28.92 49.78 28.77 49.39 28.61 48.97 28.46 48.58 28.31 48.19 28.16 47.65 28.01 47.15 27.86 46.65 27.71 46.1 27.52 45.6 27.33 45.1 27.14 44.59 26.91 44.09 26.8 43.59 26.65 43.09 26.5 42.58 26.34 42.08 26.19 41.65 26.08 41.23 25.93 40.84 25.85 40.49 25.63 39.64 25.47 38.79 25.43 38.36 25.43 37.94 25.43 37.47 25.47 37.05 25.51 36.16 25.51 35.5 25.47 35.04 25.4 34.77 25.32 34.61 25.25 34.53 25.13 34.49 25.06 34.46 25.06 34.84 25.06 35.19 25.02 35.42 24.94 35.66 24.83 35.81 24.64 35.93 24.45 36 24.19 36 23.96 36.08 23.77 36.08 23.58 36.08 23.43 36.04 23.24 36 23.09 35.93 22.94 35.85 22.82 35.73 22.6 35.5 22.37 35.15 22.18 34.8 22.03 34.38 22.37 34.34 22.63 34.26 22.9 34.22 23.13 34.11 23.35 34.03 23.5 33.91 23.69 33.8 23.84 33.64 23.32 33.76 22.86 33.8 22.67 33.8 22.48 33.76 22.33 33.68 22.18 33.64 21.91 33.45 21.69 33.22 21.54 32.95 21.39 32.64 21.8 32.44 22.22 32.25 22.79 32.13 23.35 32.06 23.84 32.06 24.34 32.06 24.19 31.79 24.07 31.55 24 31.32 23.96 31.13 23.92 30.97 23.88 30.78 23.77 30.66 23.69 30.55 23.58 30.47 23.5 30.43 23.39 30.43 23.32 30.43 23.2 30.51 23.13 30.55 23.13 30.24 23.16 29.97 23.28 29.73 23.39 29.54 23.05 29.39 22.75 29.23 23.05 28.88 23.35 28.53 23.66 28.23 23.96 27.88 24 28.15 24.04 28.38 24.3 28.3 24.6 28.26 24.72 28.26 24.87 28.3 24.98 28.34 25.13 28.42 25.36 28.11 25.63 27.8 25.85 27.49 26.08 27.18 26.5 26.64 26.87 26.1 27.33 25.71 27.74 25.32 27.78 24.82 27.86 24.32 28.05 24.28 28.24 24.24 28.31 24.16 28.39 24.08 28.46 24.01 28.54 23.85 28.43 23.5 28.27 23.27 28.09 23.12 27.93 23.04 27.67 23.04 27.44 23 27.29 22.92 27.18 22.84 27.14 22.46 27.06 22.11 27.02 21.76 26.99 21.41 27.14 21.26 27.29 21.1 27.4 20.91 27.55 20.64 27.59 20.48 27.59 20.37 27.59 20.25 27.52 20.21 27.4 20.14 27.18 20.1 26.76 19.94 26.31 19.75 26.23 19.59 26.19 19.48 26.19 19.36 26.23 19.28 26.31 19.21 26.46 19.13 26.61 19.09 26.8 19.09 27.14 18.98 27.52 18.86 27.86 18.78 28.24 18.67 28.61 18.67 28.99 18.63 29.22 18.94 29.49 19.28 29.75 19.59 30.02 19.94" fill="#101010"/><polygon class="cls-5" points="38.42 20.75 40.69 20.75 42.09 22.46 42.09 25.05 40.69 26.33 38.42 26.33 37.02 24.9 37.02 22.42 38.42 20.75" fill="#101010"/><line class="cls-6" x1="35.13" y1="21.18" x2="36.98" y2="22.57" fill="#101010"/><line class="cls-6" x1="35.13" y1="26.17" x2="36.98" y2="24.78" fill="#101010"/><line class="cls-6" x1="44.02" y1="21.18" x2="42.17" y2="22.57" fill="#101010"/><line class="cls-6" x1="44.02" y1="26.17" x2="42.17" y2="24.78" fill="#101010"/><polygon class="cls-5" points="39.59 22.03 39.86 22.07 40.16 22.15 40.39 22.3 40.62 22.5 40.8 22.73 40.92 22.96 41.03 23.23 41.03 23.54 41.03 23.85 40.92 24.12 40.8 24.39 40.62 24.63 40.39 24.78 40.16 24.93 39.86 25.01 39.59 25.05 39.29 25.01 39.02 24.93 38.76 24.78 38.53 24.63 38.34 24.39 38.23 24.12 38.16 23.85 38.12 23.54 38.16 23.23 38.23 22.96 38.34 22.73 38.53 22.5 38.76 22.3 39.02 22.15 39.29 22.07 39.59 22.03" fill="#101010"/><polygon class="cls-5" points="38.42 20.75 40.69 20.75 42.09 22.46 42.09 25.05 40.69 26.33 38.42 26.33 37.02 24.9 37.02 22.42 38.42 20.75" fill="#101010"/><line class="cls-6" x1="35.13" y1="21.18" x2="36.98" y2="22.57" fill="#101010"/><line class="cls-6" x1="35.13" y1="26.17" x2="36.98" y2="24.78" fill="#101010"/><line class="cls-6" x1="44.02" y1="21.18" x2="42.17" y2="22.57" fill="#101010"/><line class="cls-6" x1="44.02" y1="26.17" x2="42.17" y2="24.78" fill="#101010"/><polygon class="cls-5" points="39.59 22.03 39.86 22.07 40.16 22.15 40.39 22.3 40.62 22.5 40.8 22.73 40.92 22.96 41.03 23.23 41.03 23.54 41.03 23.85 40.92 24.12 40.8 24.39 40.62 24.63 40.39 24.78 40.16 24.93 39.86 25.01 39.59 25.05 39.29 25.01 39.02 24.93 38.76 24.78 38.53 24.63 38.34 24.39 38.23 24.12 38.16 23.85 38.12 23.54 38.16 23.23 38.23 22.96 38.34 22.73 38.53 22.5 38.76 22.3 39.02 22.15 39.29 22.07 39.59 22.03" fill="#101010"/><polygon class="cls-5" points="38.42 20.75 40.69 20.75 42.09 22.46 42.09 25.05 40.69 26.33 38.42 26.33 37.02 24.9 37.02 22.42 38.42 20.75" fill="#101010"/><line class="cls-6" x1="35.13" y1="21.18" x2="36.98" y2="22.57" fill="#101010"/><line class="cls-6" x1="35.13" y1="26.17" x2="36.98" y2="24.78" fill="#101010"/><line class="cls-6" x1="44.02" y1="21.18" x2="42.17" y2="22.57" fill="#101010"/><line class="cls-6" x1="44.02" y1="26.17" x2="42.17" y2="24.78" fill="#101010"/><polygon class="cls-5" points="39.59 22.03 39.86 22.07 40.16 22.15 40.39 22.3 40.62 22.5 40.8 22.73 40.92 22.96 41.03 23.23 41.03 23.54 41.03 23.85 40.92 24.12 40.8 24.39 40.62 24.63 40.39 24.78 40.16 24.93 39.86 25.01 39.59 25.05 39.29 25.01 39.02 24.93 38.76 24.78 38.53 24.63 38.34 24.39 38.23 24.12 38.16 23.85 38.12 23.54 38.16 23.23 38.23 22.96 38.34 22.73 38.53 22.5 38.76 22.3 39.02 22.15 39.29 22.07 39.59 22.03" fill="#101010"/><rect class="cls-6" x="26.8" y="36.08" width="8.37" height="0.5" fill="#101010"/><rect class="cls-6" x="28.69" y="29.31" width="4.39" height="3.87" fill="#101010"/><rect class="cls-6" x="29.3" y="29.85" width="3.14" height="2.79" fill="#101010"/><rect class="cls-6" x="27.03" y="33.33" width="7.91" height="1.93" fill="#101010"/><rect class="cls-6" x="27.4" y="33.6" width="7.15" height="1.47" fill="#101010"/><rect class="cls-6" x="26.99" y="35.62" width="7.99" height="0.46" fill="#101010"/><rect class="cls-6" x="26.57" y="36.58" width="8.82" height="0.58" fill="#101010"/><rect class="cls-6" x="26.34" y="37.16" width="9.27" height="0.5" fill="#101010"/><rect class="cls-7" x="32.25" y="33.91" width="2.2" height="0.19" fill="#101010"/><rect class="cls-6" x="32.4" y="34.38" width="1.89" height="0.43" fill="#101010"/><rect class="cls-6" x="26.8" y="36.08" width="8.37" height="0.5" fill="#101010"/><rect class="cls-6" x="28.69" y="29.31" width="4.39" height="3.87" fill="#101010"/><rect class="cls-6" x="29.3" y="29.85" width="3.14" height="2.79" fill="#101010"/><rect class="cls-6" x="27.03" y="33.33" width="7.91" height="1.93" fill="#101010"/><rect class="cls-6" x="27.4" y="33.6" width="7.15" height="1.47" fill="#101010"/><rect class="cls-6" x="26.99" y="35.62" width="7.99" height="0.46" fill="#101010"/><rect class="cls-6" x="26.57" y="36.58" width="8.82" height="0.58" fill="#101010"/><rect class="cls-6" x="26.34" y="37.16" width="9.27" height="0.5" fill="#101010"/><rect class="cls-6" x="32.4" y="34.38" width="1.89" height="0.43" fill="#101010"/><rect class="cls-6" x="26.8" y="36.08" width="8.37" height="0.5" fill="#101010"/><rect class="cls-6" x="28.69" y="29.31" width="4.39" height="3.87" fill="#101010"/><rect class="cls-6" x="29.3" y="29.85" width="3.14" height="2.79" fill="#101010"/><rect class="cls-6" x="27.03" y="33.33" width="7.91" height="1.93" fill="#101010"/><rect class="cls-6" x="27.4" y="33.6" width="7.15" height="1.47" fill="#101010"/><rect class="cls-6" x="26.99" y="35.62" width="7.99" height="0.46" fill="#101010"/><rect class="cls-6" x="26.57" y="36.58" width="8.82" height="0.58" fill="#101010"/><rect class="cls-6" x="26.34" y="37.16" width="9.27" height="0.5" fill="#101010"/><rect class="cls-7" x="32.4" y="34.38" width="1.89" height="0.43" fill="#101010"/><polygon class="cls-5" points="14.38 49.35 16.46 47.23 18.51 49.35 16.46 51.48 14.38 49.35" fill="#101010"/><polygon class="cls-5" points="13.89 49.35 15.97 47.23 18.05 49.35 15.97 51.48 13.89 49.35" fill="#101010"/><polygon class="cls-5" points="14.38 49.35 16.46 47.23 18.51 49.35 16.46 51.48 14.38 49.35" fill="#101010"/><polygon class="cls-5" points="13.89 49.35 15.97 47.23 18.05 49.35 15.97 51.48 13.89 49.35" fill="#101010"/><polygon class="cls-5" points="14.38 49.35 16.46 47.23 18.51 49.35 16.46 51.48 14.38 49.35" fill="#101010"/><polygon class="cls-5" points="13.89 49.35 15.97 47.23 18.05 49.35 15.97 51.48 13.89 49.35" fill="#101010"/><polygon class="cls-5" points="48.6 49.35 50.69 47.23 52.77 49.35 50.69 51.48 48.6 49.35" fill="#101010"/><polygon class="cls-5" points="48.15 49.35 50.23 47.23 52.31 49.35 50.23 51.48 48.15 49.35" fill="#101010"/><polygon class="cls-5" points="48.6 49.35 50.69 47.23 52.77 49.35 50.69 51.48 48.6 49.35" fill="#101010"/><polygon class="cls-5" points="48.15 49.35 50.23 47.23 52.31 49.35 50.23 51.48 48.15 49.35" fill="#101010"/><polygon class="cls-5" points="48.6 49.35 50.69 47.23 52.77 49.35 50.69 51.48 48.6 49.35" fill="#101010"/><polygon class="cls-5" points="48.15 49.35 50.23 47.23 52.31 49.35 50.23 51.48 48.15 49.35" fill="#101010"/><path class="cls-8" d="M90.76,48.2l-8.7-11.64V48.2h-4.5V29.3h4.23L90.51,41V29.3H95V48.2Z" transform="translate(-3.63 0.03)" fill="#101010"/><path class="cls-8" d="M111.63,38.7v9.5h-4.57V46.52a5.29,5.29,0,0,1-4.45,1.89c-3.1,0-5-1.89-5-4.56s2-4.37,5.58-4.4H107v-.21c0-1.43-1-2.3-2.84-2.3a10.14,10.14,0,0,0-4.34,1.22l-1.33-3.08a15.41,15.41,0,0,1,6.75-1.65C109.28,33.43,111.6,35.4,111.63,38.7ZM107,43.26V42H104.1c-1.41,0-2.11.49-2.11,1.57s.76,1.73,2.05,1.73A3,3,0,0,0,107,43.26Z" transform="translate(-3.63 0.03)" fill="#101010"/><path class="cls-8" d="M124.34,47.42a7.9,7.9,0,0,1-3.88,1c-2.81,0-4.83-1.59-4.83-4.61V37.37h-2v-3h2v-4h4.64v4h3.8v3.07h-3.8v5.7c0,1.13.48,1.62,1.35,1.59a5.19,5.19,0,0,0,1.81-.48Z" transform="translate(-3.63 0.03)" fill="#101010"/><path class="cls-8" d="M131.5,29.46A2.46,2.46,0,1,1,129,27,2.38,2.38,0,0,1,131.5,29.46ZM126.7,48.2V33.65h4.64V48.2Z" transform="translate(-3.63 0.03)" fill="#101010"/><path class="cls-8" d="M149.78,40.91c0,4.48-3.19,7.45-7.94,7.45s-8-3-8-7.45,3.18-7.42,8-7.42S149.78,36.43,149.78,40.91ZM138.57,41c0,2.27,1.33,3.78,3.27,3.78s3.24-1.51,3.24-3.78-1.32-3.77-3.24-3.77S138.57,38.72,138.57,41Z" transform="translate(-3.63 0.03)" fill="#101010"/><path class="cls-8" d="M167.14,39V48.2h-4.65V40.32a2.48,2.48,0,0,0-2.56-2.76,3,3,0,0,0-3,2.94v7.7h-4.67V33.65H157V36a5.41,5.41,0,0,1,4.86-2.59C165,33.43,167.14,35.62,167.14,39Z" transform="translate(-3.63 0.03)" fill="#101010"/><path class="cls-8" d="M183.34,38.7v9.5h-4.56V46.52a5.32,5.32,0,0,1-4.46,1.89c-3.1,0-5-1.89-5-4.56s2-4.37,5.59-4.4h3.83v-.21c0-1.43-.95-2.3-2.84-2.3a10.14,10.14,0,0,0-4.34,1.22l-1.32-3.08A15.33,15.33,0,0,1,177,33.43C181,33.43,183.31,35.4,183.34,38.7Zm-4.59,4.56V42h-2.94c-1.41,0-2.11.49-2.11,1.57s.76,1.73,2.05,1.73A3,3,0,0,0,178.75,43.26Z" transform="translate(-3.63 0.03)" fill="#101010"/><path class="cls-8" d="M186.8,48.2v-20h4.67v20Z" transform="translate(-3.63 0.03)" fill="#101010"/><path class="cls-8" d="M206.42,33.08v3.75h9v3.78h-9v3.81h10.29V48.2H201.62V29.3h14.79v3.78Z" transform="translate(-3.63 0.03)" fill="#101010"/><path class="cls-8" d="M234.64,39V48.2H230V40.32a2.48,2.48,0,0,0-2.56-2.76,3,3,0,0,0-3,2.94v7.7h-4.67V33.65h4.67V36a5.41,5.41,0,0,1,4.86-2.59C232.53,33.43,234.64,35.62,234.64,39Z" transform="translate(-3.63 0.03)" fill="#101010"/><path class="cls-8" d="M251.86,46.88c0,4.13-3.18,6.74-7.88,6.74a11.85,11.85,0,0,1-6.48-1.91l1.62-3.16A8,8,0,0,0,243.63,50c2.24,0,3.59-1.19,3.59-3V45.47a5,5,0,0,1-4.18,2c-3.68,0-6.27-2.81-6.27-7.05s2.51-6.88,6.16-6.88a5,5,0,0,1,4.29,1.94V33.65h4.64Zm-4.64-6.38c0-2.13-1.22-3.56-3-3.56s-3.08,1.46-3.08,3.56S242.36,44,244.2,44,247.22,42.58,247.22,40.5Z" transform="translate(-3.63 0.03)" fill="#101010"/><path class="cls-8" d="M260.23,29.46A2.46,2.46,0,1,1,257.78,27,2.37,2.37,0,0,1,260.23,29.46Zm-4.8,18.74V33.65h4.64V48.2Z" transform="translate(-3.63 0.03)" fill="#101010"/><path class="cls-8" d="M278.67,39V48.2H274V40.32a2.48,2.48,0,0,0-2.56-2.76,3,3,0,0,0-3,2.94v7.7h-4.67V33.65h4.67V36a5.4,5.4,0,0,1,4.85-2.59C276.57,33.43,278.67,35.62,278.67,39Z" transform="translate(-3.63 0.03)" fill="#101010"/><path class="cls-8" d="M295.71,42.18H285.48a3.36,3.36,0,0,0,3.43,2.7,4.88,4.88,0,0,0,3.48-1.49l2.46,2.41a8.38,8.38,0,0,1-6.35,2.56c-4.75,0-7.72-3-7.72-7.4s3.08-7.47,7.59-7.47C293.5,33.49,296,36.86,295.71,42.18Zm-4.48-2.51a2.72,2.72,0,0,0-2.81-2.94c-1.62,0-2.72,1.18-3,2.94Z" transform="translate(-3.63 0.03)" fill="#101010"/><path class="cls-8" d="M312,42.18H301.73a3.36,3.36,0,0,0,3.43,2.7,4.88,4.88,0,0,0,3.48-1.49l2.46,2.41a8.34,8.34,0,0,1-6.34,2.56c-4.75,0-7.72-3-7.72-7.4s3.07-7.47,7.58-7.47C309.75,33.49,312.29,36.86,312,42.18Zm-4.48-2.51a2.71,2.71,0,0,0-2.8-2.94c-1.62,0-2.73,1.18-3,2.94Z" transform="translate(-3.63 0.03)" fill="#101010"/><path class="cls-8" d="M319.17,36.11a5.33,5.33,0,0,1,4.73-2.68v4.21c-2.7-.24-4.48,1-4.73,3.08V48.2H314.5V33.65h4.67Z" transform="translate(-3.63 0.03)" fill="#101010"/><path class="cls-8" d="M330.84,29.46a2.46,2.46,0,1,1-4.91,0,2.46,2.46,0,0,1,4.91,0ZM326,48.2V33.65h4.65V48.2Z" transform="translate(-3.63 0.03)" fill="#101010"/><path class="cls-8" d="M349.28,39V48.2h-4.65V40.32a2.48,2.48,0,0,0-2.56-2.76,3,3,0,0,0-3,2.94v7.7h-4.67V33.65h4.67V36A5.41,5.41,0,0,1,344,33.43C347.17,33.43,349.28,35.62,349.28,39Z" transform="translate(-3.63 0.03)" fill="#101010"/><path class="cls-8" d="M366.5,46.88c0,4.13-3.18,6.74-7.88,6.74a11.85,11.85,0,0,1-6.48-1.91l1.62-3.16A8,8,0,0,0,358.27,50c2.24,0,3.59-1.19,3.59-3V45.47a5,5,0,0,1-4.18,2c-3.68,0-6.27-2.81-6.27-7.05s2.51-6.88,6.16-6.88a5,5,0,0,1,4.29,1.94V33.65h4.64Zm-4.64-6.38c0-2.13-1.22-3.56-3-3.56s-3.08,1.46-3.08,3.56S357,44,358.84,44,361.86,42.58,361.86,40.5Z" transform="translate(-3.63 0.03)" fill="#101010"/><path class="cls-8" d="M392.83,32.33l-2.78,3.29a6.5,6.5,0,0,0-4.76-2.46A5.27,5.27,0,0,0,380,38.64a5.31,5.31,0,0,0,5.26,5.56A7.1,7.1,0,0,0,390.05,42l2.8,3a11.39,11.39,0,0,1-7.8,3.45,9.59,9.59,0,0,1-9.93-9.71c0-5.46,4.34-9.56,10.09-9.56A11,11,0,0,1,392.83,32.33Z" transform="translate(-3.63 0.03)" fill="#101010"/><path class="cls-8" d="M409.38,40.91c0,4.48-3.19,7.45-7.94,7.45s-8-3-8-7.45,3.18-7.42,8-7.42S409.38,36.43,409.38,40.91Zm-11.2.05c0,2.27,1.32,3.78,3.26,3.78s3.24-1.51,3.24-3.78-1.32-3.77-3.24-3.77S398.18,38.72,398.18,41Z" transform="translate(-3.63 0.03)" fill="#101010"/><path class="cls-8" d="M412,48.2v-20h4.67v20Z" transform="translate(-3.63 0.03)" fill="#101010"/><path class="cls-8" d="M420.69,48.2v-20h4.67v20Z" transform="translate(-3.63 0.03)" fill="#101010"/><path class="cls-8" d="M442.94,42.18H432.71a3.36,3.36,0,0,0,3.43,2.7,4.89,4.89,0,0,0,3.48-1.49l2.45,2.41a8.34,8.34,0,0,1-6.34,2.56c-4.75,0-7.72-3-7.72-7.4s3.08-7.47,7.59-7.47C440.72,33.49,443.26,36.86,442.94,42.18Zm-4.48-2.51a2.72,2.72,0,0,0-2.81-2.94,3.11,3.11,0,0,0-3,2.94Z" transform="translate(-3.63 0.03)" fill="#101010"/><path class="cls-8" d="M459.38,46.88c0,4.13-3.18,6.74-7.88,6.74A11.85,11.85,0,0,1,445,51.71l1.62-3.16A8,8,0,0,0,451.15,50c2.24,0,3.59-1.19,3.59-3V45.47a5.06,5.06,0,0,1-4.19,2c-3.67,0-6.26-2.81-6.26-7.05s2.51-6.88,6.16-6.88a5,5,0,0,1,4.29,1.94V33.65h4.64Zm-4.64-6.38c0-2.13-1.22-3.56-3-3.56s-3.07,1.46-3.07,3.56S449.88,44,451.71,44,454.74,42.58,454.74,40.5Z" transform="translate(-3.63 0.03)" fill="#101010"/><path class="cls-8" d="M476.66,42.18H466.43a3.36,3.36,0,0,0,3.43,2.7,4.88,4.88,0,0,0,3.48-1.49l2.46,2.41a8.37,8.37,0,0,1-6.35,2.56c-4.75,0-7.72-3-7.72-7.4s3.08-7.47,7.59-7.47C474.45,33.49,477,36.86,476.66,42.18Zm-4.48-2.51a2.71,2.71,0,0,0-2.81-2.94c-1.62,0-2.72,1.18-3,2.94Z" transform="translate(-3.63 0.03)" fill="#101010"/></svg>